<?xml version="1.0" standalone="no"?>
<!DOCTYPE svg PUBLIC "-//W3C//DTD SVG 20010904//EN"
 "http://www.w3.org/TR/2001/REC-SVG-20010904/DTD/svg10.dtd">
<svg version="1.0" xmlns="http://www.w3.org/2000/svg"
 width="500.000000pt" height="500.000000pt" viewBox="0 0 500.000000 500.000000"
 preserveAspectRatio="xMidYMid meet">

<g transform="translate(0.000000,500.000000) scale(0.100000,-0.100000)"
fill="#000000" stroke="none">
<path d="M2867 4158 c-15 -12 -93 -159 -116 -220 -9 -24 -13 -25 -138 -31 -70
-3 -134 -7 -142 -9 -7 -2 -42 37 -80 90 -91 125 -128 162 -163 162 -21 0 -31
-8 -43 -31 -27 -51 -86 -211 -96 -261 -7 -31 -29 -73 -64 -120 -30 -40 -69
-98 -87 -129 -32 -55 -34 -57 -84 -62 -93 -10 -153 -59 -140 -113 9 -33 28
-26 38 14 10 36 50 62 98 62 l30 0 -40 -80 c-48 -95 -81 -180 -110 -287 -13
-43 -32 -90 -44 -104 -12 -14 -28 -45 -35 -70 -7 -24 -33 -97 -57 -161 -75
-199 -136 -487 -150 -705 -7 -109 -6 -113 13 -113 18 0 21 9 26 103 12 205 80
532 147 705 l32 83 79 -75 c149 -143 266 -216 442 -276 67 -23 101 -39 85 -39
-18 -1 -28 -6 -28 -16 0 -12 13 -15 58 -15 169 -1 466 -22 548 -39 164 -34
253 -105 229 -180 -16 -52 -210 -111 -437 -136 -519 -55 -526 -54 -629 42 -29
27 -55 43 -66 41 -16 -3 -14 -8 12 -32 116 -111 175 -134 304 -116 42 5 159
16 261 25 294 24 427 52 527 110 47 28 63 51 63 91 0 74 -92 149 -215 174 -90
18 -98 27 -30 35 86 10 171 33 226 61 27 13 50 24 53 24 2 0 7 -17 11 -37 15
-86 76 -183 185 -297 58 -61 129 -139 158 -174 32 -37 62 -62 74 -62 19 0 19
1 -3 33 -13 17 -83 93 -156 168 -73 74 -133 140 -133 145 0 15 50 59 86 77 17
9 104 29 195 46 286 53 373 81 412 133 38 51 -10 120 -111 159 -73 28 -277 37
-429 19 -57 -7 -107 -10 -110 -6 -3 3 8 27 25 53 93 145 137 294 130 437 -3
63 0 107 10 141 14 50 13 197 -2 212 -4 4 -38 6 -75 5 l-68 -3 -33 41 c-17 22
-64 67 -104 99 -68 56 -75 65 -111 153 -83 205 -168 300 -228 256z m73 -38
c39 -39 86 -125 130 -233 34 -87 49 -112 76 -131 39 -26 158 -136 152 -141 -1
-1 -86 -6 -188 -9 -102 -4 -318 -11 -480 -16 -162 -6 -378 -15 -479 -20 -101
-6 -186 -9 -189 -6 -5 6 70 125 119 187 17 22 39 73 54 125 48 167 78 244 97
244 20 0 103 -96 165 -192 l44 -68 62 8 c127 15 306 8 394 -16 45 -12 89 -22
98 -22 22 0 19 38 -10 117 -40 112 -72 114 -116 7 -23 -55 -43 -67 -78 -45
-12 8 -7 26 28 103 62 133 80 149 121 108z m10 -166 c11 -25 20 -55 20 -66 0
-18 -4 -19 -37 -13 -45 8 -53 12 -53 28 1 16 38 97 45 97 3 0 15 -21 25 -46z
m39 -439 c25 -113 100 -212 179 -240 63 -21 151 -19 214 5 28 11 54 17 57 14
3 -3 5 -40 4 -84 -4 -172 -69 -322 -222 -512 -78 -97 -126 -123 -263 -140
-334 -42 -849 129 -1178 391 -25 19 -46 36 -48 37 -7 4 48 196 84 291 20 54
54 130 75 169 l39 72 138 6 c75 4 149 9 163 11 24 4 27 1 33 -38 26 -171 138
-276 281 -264 180 15 295 125 295 283 0 47 4 50 91 53 l46 1 12 -55z m-1221
-599 c99 -79 181 -130 327 -201 231 -113 532 -192 745 -196 72 -1 73 -1 35
-11 -69 -18 -387 -15 -492 5 -196 36 -363 109 -505 220 -154 120 -221 201
-191 230 10 10 10 11 81 -47z m2047 -181 c72 -19 117 -46 135 -80 36 -68 -45
-103 -392 -165 -175 -32 -229 -51 -272 -99 -11 -12 -22 -21 -26 -21 -13 0 -72
131 -77 171 -5 36 -2 42 62 111 67 73 67 73 138 84 112 18 361 17 432 -1z"/>
<path d="M2245 3988 c-9 -29 -19 -88 -22 -130 -7 -91 -10 -89 93 -57 80 24
111 46 79 55 -12 3 -34 26 -50 52 -15 26 -36 55 -44 66 -9 10 -16 27 -16 39 0
42 -24 27 -40 -25z m66 -90 c20 -40 21 -42 3 -55 -31 -23 -54 -16 -54 16 0 45
12 91 21 85 5 -3 19 -24 30 -46z"/>
<path d="M3002 3345 c5 -41 -7 -45 -34 -10 -22 29 -38 25 -38 -10 0 -35 -10
-54 -26 -48 -9 3 -14 20 -14 49 0 32 -4 44 -15 44 -24 0 -29 -46 -8 -87 23
-48 50 -54 79 -18 18 23 25 25 42 16 16 -9 24 -8 36 5 19 18 19 22 5 63 -15
42 -32 40 -27 -4z"/>
<path d="M1410 1748 c-83 -42 -113 -131 -74 -214 22 -46 60 -71 156 -102 45
-15 86 -35 92 -44 17 -28 -5 -52 -48 -56 -45 -4 -83 18 -92 53 -5 22 -11 25
-53 25 -95 0 -103 -10 -75 -93 21 -63 68 -102 140 -117 160 -33 284 46 284
181 0 91 -51 147 -163 180 -100 28 -117 36 -117 53 0 17 30 36 55 36 9 0 30
-14 47 -31 31 -30 32 -31 91 -20 33 6 62 13 65 15 7 8 -6 48 -28 84 -43 71
-188 96 -280 50z"/>
<path d="M2665 1751 c-98 -45 -151 -152 -143 -292 11 -180 127 -286 290 -265
141 19 218 121 218 291 0 133 -42 214 -133 260 -64 32 -170 35 -232 6z m167
-132 c63 -34 64 -225 1 -266 -40 -27 -93 -20 -124 15 -49 54 -48 185 2 238 25
26 84 33 121 13z"/>
<path d="M850 1690 l0 -70 75 0 75 0 0 -210 0 -210 75 0 75 0 0 210 0 210 75
0 75 0 0 70 0 70 -225 0 -225 0 0 -70z"/>
<path d="M1940 1480 l0 -280 65 0 65 0 1 153 1 152 36 -147 36 -148 62 0 63 0
10 38 c5 20 20 83 33 139 13 57 26 103 31 103 4 0 7 -65 7 -145 l0 -145 65 0
65 0 0 280 0 280 -98 0 -99 0 -34 -145 c-18 -80 -37 -145 -40 -145 -4 0 -19
48 -33 108 -15 59 -31 124 -37 145 l-10 37 -94 0 -95 0 0 -280z"/>
<path d="M3030 1754 c0 -4 39 -130 87 -280 l86 -274 77 0 77 0 86 273 c48 150
87 276 87 280 0 5 -32 7 -72 5 l-71 -3 -19 -65 c-54 -195 -81 -279 -87 -275
-4 2 -29 81 -56 174 l-49 171 -73 0 c-40 0 -73 -3 -73 -6z"/>
<path d="M3540 1480 l0 -280 75 0 75 0 0 280 0 280 -75 0 -75 0 0 -280z"/>
<path d="M3760 1480 l0 -280 205 0 205 0 0 70 0 69 -132 3 -133 3 0 40 0 40
118 3 117 3 0 64 0 65 -121 0 -120 0 3 33 3 32 128 3 127 3 0 64 0 65 -200 0
-200 0 0 -280z"/>
</g>
</svg>
